<?xml version="1.0" standalone="no"?>
<!DOCTYPE svg PUBLIC "-//W3C//DTD SVG 20010904//EN"
 "http://www.w3.org/TR/2001/REC-SVG-20010904/DTD/svg10.dtd">
<svg version="1.0" xmlns="http://www.w3.org/2000/svg"
 width="335.000000pt" height="335.000000pt" viewBox="0 0 335.000000 335.000000"
 preserveAspectRatio="xMidYMid meet">
<metadata>
Created by potrace 1.14, written by Peter Selinger 2001-2017
</metadata>
<g transform="translate(0.000000,335.000000) scale(0.100000,-0.100000)"
fill="#000000" stroke="none">
<path d="M1070 3332 c-71 -27 -105 -49 -153 -96 -85 -83 -124 -180 -125 -306
-1 -96 19 -165 70 -240 82 -124 195 -184 337 -182 359 8 528 466 267 727 -76
76 -149 107 -261 111 -68 3 -101 -1 -135 -14z"/>
<path d="M2055 3336 c-201 -64 -322 -275 -280 -491 43 -223 241 -368 457 -334
107 17 223 100 280 199 64 110 75 284 25 390 -54 117 -162 212 -266 237 -70
16 -163 16 -216 -1z"/>
<path d="M415 2584 c-114 -27 -198 -80 -258 -161 -147 -200 -95 -491 110 -621
96 -61 233 -76 340 -37 113 41 227 165 253 276 28 115 14 240 -37 335 -48 89
-161 179 -253 199 -35 8 -136 14 -155 9z"/>
<path d="M2768 2575 c-256 -68 -382 -394 -244 -630 151 -257 496 -272 669 -29
56 79 76 153 74 264 -2 83 -7 104 -34 162 -51 109 -143 194 -245 227 -54 18
-165 20 -220 6z"/>
<path d="M1565 2539 c-275 -27 -453 -154 -572 -409 -17 -36 -52 -130 -78 -210
-73 -223 -162 -373 -354 -589 -67 -77 -139 -159 -163 -189 -36 -44 -89 -160
-109 -237 -21 -84 -30 -274 -16 -365 24 -162 82 -286 177 -380 148 -149 302
-181 650 -135 25 3 81 14 125 24 44 11 100 22 125 26 24 4 47 8 50 10 27 17
316 26 425 14 119 -13 139 -16 261 -42 414 -88 624 -66 786 82 145 132 209
319 202 581 -7 246 -65 367 -292 610 -54 57 -156 190 -206 268 -71 109 -103
179 -157 343 -57 174 -109 281 -176 363 -147 182 -385 264 -678 235z"/>
</g>
</svg>
